<svg xmlns="http://www.w3.org/2000/svg" width="502" height="112" viewBox="0 0 502 112" xmlns:xlink="http://www.w3.org/1999/xlink">
  <defs>
    <linearGradient id="b" x1="0%" y1="100%" y2="0%">
      <stop stop-color="#14BBE0" offset="0%"/>
      <stop stop-color="#6AF2DC" offset="100%"/>
    </linearGradient>
    <circle id="a" cx="56" cy="56" r="56"/>
    <linearGradient id="d" x1="100%" x2="0%" y1="0%" y2="100%">
      <stop stop-color="#2AC9DE" offset="0%"/>
      <stop stop-color="#52E4DD" offset="100%"/>
    </linearGradient>
  </defs>
  <g fill="none" fill-rule="evenodd">
    <mask id="c" fill="white">
      <use xlink:href="#a"/>
    </mask>
    <use fill="#27D8E8" xlink:href="#a"/>
    <use fill="url(#b)" xlink:href="#a"/>
    <g fill="#FFFFFF" mask="url(#c)">
      <g transform="translate(19.6 22.4)">
        <path d="M58.4463918,74.3125773 L61.6225716,74.8532037 C62.2286645,74.9563684 62.72,75.5398688 62.72,76.15725 L62.72,84.00275 C62.72,84.6197901 62.2177254,85.2054935 61.6225716,85.3067963 L37.4974284,89.4132037 C36.8913355,89.5163684 35.8977254,89.5145065 35.3025716,89.4132037 L11.1774284,85.3067963 C10.5713355,85.2036316 10.08,84.6201312 10.08,84.00275 L10.08,76.15725 C10.08,75.5402099 10.5822746,74.9545065 11.1774284,74.8532037 L14.3536082,74.3125773 L35.3023668,77.6643787 C35.9140076,77.7622412 36.8914271,77.7613717 37.4976332,77.6643787 L58.4463918,74.3125773 Z" opacity=".03"/>
        <path d="M59.8126214,62.5460194 L63.3023668,63.1043787 C63.9085729,63.2013717 64.4,63.7798688 64.4,64.39725 L64.4,72.24275 C64.4,72.8597901 63.9140076,73.4377588 63.3023668,73.5356213 L37.4976332,77.6643787 C36.8914271,77.7613717 35.9140076,77.7622412 35.3023668,77.6643787 L9.49763318,73.5356213 C8.89142712,73.4386283 8.4,72.8601312 8.4,72.24275 L8.4,64.39725 C8.4,63.7802099 8.88599243,63.2022412 9.49763318,63.1043787 L12.9873786,62.5460194 L35.2906776,65.9125551 C35.909611,66.005979 36.8966606,66.0050324 37.5093224,65.9125551 L59.8126214,62.5460194 Z" opacity=".06"/>
        <path d="M61.1787156,50.7801835 L64.9706776,51.3525551 C65.5833394,51.4450324 66.08,52.0198688 66.08,52.63725 L66.08,60.48275 C66.08,61.0997901 65.589611,61.674021 64.9706776,61.7674449 L37.5093224,65.9125551 C36.8966606,66.0050324 35.909611,66.005979 35.2906776,65.9125551 L7.82932243,61.7674449 C7.21666057,61.6749676 6.72,61.1001312 6.72,60.48275 L6.72,52.63725 C6.72,52.0202099 7.21038904,51.445979 7.82932243,51.3525551 L11.6212844,50.7801835 L35.283881,54.1605544 C35.9074093,54.2496299 36.8997035,54.2486138 37.516119,54.1605544 L61.1787156,50.7801835 Z" opacity=".12"/>
        <path d="M62.5446957,39.0149565 L66.643881,39.6005544 C67.2602965,39.6886138 67.76,40.2598688 67.76,40.87725 L67.76,48.72275 C67.76,49.3397901 67.2674093,49.9103701 66.643881,49.9994456 L37.516119,54.1605544 C36.8997035,54.2486138 35.9074093,54.2496299 35.283881,54.1605544 L6.156119,49.9994456 C5.5397035,49.9113862 5.04,49.3401312 5.04,48.72275 L5.04,40.87725 C5.04,40.2602099 5.53259071,39.6896299 6.156119,39.6005544 L10.2553043,39.0149565 L35.2817679,42.4083753 C35.9073018,42.4931935 36.9006496,42.4921153 37.5182321,42.4083753 L62.5446957,39.0149565 Z" opacity=".25"/>
        <path d="M63.9105785,27.2502479 L68.3217679,27.8483753 C68.9393504,27.9321153 69.44,28.4998688 69.44,29.11725 L69.44,36.96275 C69.44,37.5797901 68.9473018,38.1468065 68.3217679,38.2316247 L37.5182321,42.4083753 C36.9006496,42.4921153 35.9073018,42.4931935 35.2817679,42.4083753 L4.47823209,38.2316247 C3.86064956,38.1478847 3.36,37.5801312 3.36,36.96275 L3.36,29.11725 C3.36,28.5002099 3.8526982,27.9331935 4.47823209,27.8483753 L8.88942149,27.2502479 L35.2841271,30.6560164 C35.9091872,30.7366693 36.8995933,30.7355363 37.5158729,30.6560164 L63.9105785,27.2502479 Z" opacity=".5"/>
        <path d="M35.2841271,11.9039836 C35.9004067,11.8244637 36.8908128,11.8233307 37.5158729,11.9039836 L70.0041271,16.0960164 C70.6204067,16.1755363 71.12,16.7398688 71.12,17.35725 L71.12,25.20275 C71.12,25.8197901 70.6291872,26.3833307 70.0041271,26.4639836 L37.5158729,30.6560164 C36.8995933,30.7355363 35.9091872,30.7366693 35.2841271,30.6560164 L2.79587292,26.4639836 C2.17959332,26.3844637 1.68,25.8201312 1.68,25.20275 L1.68,17.35725 C1.68,16.7402099 2.17081284,16.1766693 2.79587292,16.0960164 L35.2841271,11.9039836 Z" opacity=".75"/>
        <path d="M35.2907453,0.13652366 C35.9033697,0.0611237248 36.9007095,0.0616257846 37.5092547,0.13652366 L71.6907453,4.34347634 C72.3033697,4.41887628 72.8,4.97986877 72.8,5.59725 L72.8,13.44275 C72.8,14.0597901 72.2992905,14.6216258 71.6907453,14.6965237 L37.5092547,18.9034763 C36.8966303,18.9788763 35.8992905,18.9783742 35.2907453,18.9034763 L1.10925474,14.6965237 C0.496630264,14.6211237 0,14.0601312 0,13.44275 L0,5.59725 C0,4.98020986 0.5007095,4.41837422 1.10925474,4.34347634 L35.2907453,0.13652366 Z"/>
      </g>
    </g>
    <path fill="url(#d)" d="M128,34.3098592 L128,77.6901408 L135.079243,77.6901408 L135.079243,59.9042254 L154.157202,59.9042254 L154.157202,53.3971831 L135.079243,53.3971831 L135.079243,40.8788732 L156.136991,40.8788732 L156.196984,34.3098592 L128,34.3098592 Z M181.274302,34.1239437 C193.812961,34.1239437 203.531922,43.6056338 203.531922,56 C203.531922,68.3943662 193.812961,78 181.274302,78 C168.735643,78 159.016683,68.3943662 159.016683,56 C159.016683,43.543662 168.735643,34.1239437 181.274302,34.1239437 Z M181.334296,40.6929577 C173.055181,40.6929577 166.215913,47.3859155 166.215913,56 C166.215913,64.6140845 173.115175,71.4309859 181.334296,71.4309859 C189.553417,71.4309859 196.272698,64.6140845 196.272698,56 C196.272698,47.3859155 189.553417,40.6929577 181.334296,40.6929577 Z M245.767405,77.6901408 L237.728264,77.6901408 L230.049086,64.5521127 C229.44915,64.6140845 228.78922,64.6140845 228.129291,64.6140845 L218.170356,64.6140845 L218.170356,77.6901408 L211.091113,77.6901408 L211.091113,34.3098592 L228.129291,34.3098592 C238.868142,34.3098592 245.047482,39.7014085 245.047482,49.1211268 C245.047482,56.0619718 241.927815,60.9577465 236.348412,63.1887324 L245.767405,77.6901408 Z M218.170356,58.0450704 L228.129291,58.0450704 C234.608598,58.0450704 238.3282,55.1943662 238.3282,49.3070423 C238.3282,43.6056338 234.608598,40.8788732 228.129291,40.8788732 L218.170356,40.8788732 L218.170356,58.0450704 Z M254.466474,34.3098592 L254.466474,77.6901408 L261.125762,77.6901408 L261.125762,45.2788732 L274.384344,73.1661972 L279.00385,73.1661972 L292.262432,45.2788732 L292.322425,77.6901408 L298.861726,77.6901408 L298.861726,34.3098592 L290.522618,34.3098592 L276.724094,63.1267606 L262.865576,34.3098592 L254.466474,34.3098592 Z M336.515881,44.9070423 L339.455566,38.4619718 C335.555983,35.7971831 330.216554,34 324.757138,34 C315.638114,34 309.458774,38.6478873 309.458774,46.084507 C309.458774,61.515493 332.136349,56.1239437 332.136349,65.7915493 C332.136349,69.1380282 329.196663,71.0591549 324.27719,71.0591549 C319.777671,71.0591549 314.378248,68.828169 310.05871,64.7380282 L306.999038,71.0591549 C311.318576,75.1492958 317.557908,77.9380282 324.157202,77.9380282 C333.396214,77.9380282 339.995509,73.1661972 339.995509,65.4197183 C340.055502,49.8028169 317.377927,54.884507 317.377927,45.4028169 C317.377927,42.4901408 320.077639,40.8788732 324.217196,40.8788732 C327.396856,40.8788732 331.956368,42.056338 336.515881,44.9070423 Z M365.012833,34.3098592 C375.571704,34.3098592 381.631056,39.7014085 381.631056,49.1211268 C381.631056,58.9126761 375.571704,64.6140845 365.012833,64.6140845 L355.353866,64.6140845 L355.353866,77.6901408 L348.274623,77.6901408 L348.274623,34.3098592 L365.012833,34.3098592 Z M364.712865,58.0450704 C371.192172,58.0450704 374.851781,55.1943662 374.851781,49.3070423 C374.851781,43.6056338 371.192172,40.8788732 364.712865,40.8788732 L355.353866,40.8788732 L355.353866,58.0450704 L364.712865,58.0450704 Z M388.650305,34.3098592 L388.650305,77.6901408 L395.729548,77.6901408 L395.729548,34.3098592 L388.650305,34.3098592 Z M406.768367,34.3098592 L406.768367,77.6901408 L413.84761,77.6901408 L413.84761,46.5802817 L436.225217,77.6901408 L443.184472,77.6901408 L443.184472,34.3098592 L436.225217,34.3098592 L436.225217,65.4816901 L413.727623,34.3098592 L406.768367,34.3098592 Z M454.283285,34.3098592 L454.283285,77.6901408 L485,77.6901408 L485,71.1211268 L461.362528,71.1211268 L461.362528,59.1605634 L481.880334,59.1605634 L481.880334,52.6535211 L461.362528,52.6535211 L461.362528,40.8788732 L484.280077,40.8788732 L484.280077,34.3098592 L454.283285,34.3098592 Z"/>
  </g>
</svg>
