<svg xmlns="http://www.w3.org/2000/svg" width="200" height="200" viewBox="0 0 200 200" xmlns:xlink="http://www.w3.org/1999/xlink">
  <defs>
    <linearGradient id="b" x1="0%" y1="100%" y2="0%">
      <stop stop-color="#00B7FF" offset="0%"/>
      <stop stop-color="#00FFEE" offset="100%"/>
    </linearGradient>
    <linearGradient id="c" x1="0%" y1="100%" y2="0%">
      <stop stop-color="#00A8C5" offset="0%"/>
      <stop stop-color="#FFFFC7" offset="100%"/>
    </linearGradient>
    <circle id="a" cx="100" cy="100" r="100"/>
  </defs>
  <g fill="none" fill-rule="evenodd">
    <mask id="d" fill="white">
      <use xlink:href="#a"/>
    </mask>
    <use fill="#27D8E8" xlink:href="#a"/>
    <use fill="url(#b)" xlink:href="#a"/>
    <use fill="url(#c)" fill-opacity=".3" xlink:href="#a"/>
    <g fill="#FFFFFF" mask="url(#d)">
      <g transform="translate(35 40)">
        <path d="M104.368557,132.701031 L110.025423,133.663902 C111.115952,133.849524 112,134.892623 112,135.995089 L112,150.004911 C112,151.106768 111.123706,152.149156 110.025423,152.336098 L66.9745772,159.663902 C65.8840483,159.849524 64.1237061,159.850844 63.0254228,159.663902 L19.9745772,152.336098 C18.8840483,152.150476 18,151.107377 18,150.004911 L18,135.995089 C18,134.893232 18.8762939,133.850844 19.9745772,133.663902 L25.6314433,132.701031 L63.0245405,138.683926 C64.1109357,138.85775 65.8844433,138.858489 66.9754595,138.683926 L104.368557,132.701031 Z" opacity=".03"/>
        <path d="M106.808252,111.68932 L113.024541,112.683926 C114.115557,112.858489 115,113.892623 115,114.995089 L115,129.004911 C115,130.106768 114.110936,131.14225 113.024541,131.316074 L66.9754595,138.683926 C65.8844433,138.858489 64.1109357,138.85775 63.0245405,138.683926 L16.9754595,131.316074 C15.8844433,131.141511 15,130.107377 15,129.004911 L15,114.995089 C15,113.893232 15.8890643,112.85775 16.9754595,112.683926 L23.1917476,111.68932 L63.0190671,117.700991 C64.1243053,117.86782 65.8868939,117.866129 66.9809329,117.700991 L106.808252,111.68932 Z" opacity=".06"/>
        <path d="M109.247706,90.6788991 L116.019067,91.7009913 C117.113106,91.8661292 118,92.8926228 118,93.9950893 L118,108.004911 C118,109.106768 117.124305,110.13218 116.019067,110.299009 L66.9809329,117.700991 C65.8868939,117.866129 64.1243053,117.86782 63.0190671,117.700991 L13.9809329,110.299009 C12.8868939,110.133871 12,109.107377 12,108.004911 L12,93.9950893 C12,92.8932319 12.8756947,91.8678197 13.9809329,91.7009913 L20.7522936,90.6788991 L63.0233792,96.7176256 C64.1203737,96.8743391 65.8849633,96.8735767 66.9766208,96.7176256 L109.247706,90.6788991 Z" opacity=".12"/>
        <path d="M111.686957,69.6695652 L119.023379,70.7176256 C120.115037,70.8735767 121,71.8926228 121,72.9950893 L121,87.0049107 C121,88.1067681 120.120374,89.1256609 119.023379,89.2823744 L66.9766208,96.7176256 C65.8849633,96.8735767 64.1203737,96.8743391 63.0233792,96.7176256 L10.9766208,89.2823744 C9.88496327,89.1264233 9,88.1073772 9,87.0049107 L9,72.9950893 C9,71.8932319 9.87962627,70.8743391 10.9766208,70.7176256 L18.3130435,69.6695652 L63.0200936,75.7315381 C64.1201818,75.8807026 65.8864343,75.8798055 66.9799064,75.7315381 L111.686957,69.6695652 Z" opacity=".25"/>
        <path d="M114.126033,48.661157 L122.020094,49.7315381 C123.113566,49.8798055 124,50.8926228 124,51.9950893 L124,66.0049107 C124,67.1067681 123.120182,68.1192974 122.020094,68.2684619 L66.9799064,75.7315381 C65.8864343,75.8798055 64.1201818,75.8807026 63.0200936,75.7315381 L7.97990637,68.2684619 C6.88643428,68.1201945 6,67.1073772 6,66.0049107 L6,51.9950893 C6,50.8932319 6.87981822,49.8807026 7.97990637,49.7315381 L15.8739669,48.661157 L63.0073698,54.7428864 C64.1116368,54.8853725 65.8921309,54.8848863 66.9926302,54.7428864 L114.126033,48.661157 Z" opacity=".5"/>
        <path d="M63.0073698,21.2571136 C64.1078691,21.1151137 65.8883632,21.1146275 66.9926302,21.2571136 L125.00737,28.7428864 C126.107869,28.8848863 127,29.8926228 127,30.9950893 L127,45.0049107 C127,46.1067681 126.111637,47.1146275 125.00737,47.2571136 L66.9926302,54.7428864 C65.8921309,54.8848863 64.1116368,54.8853725 63.0073698,54.7428864 L4.99263021,47.2571136 C3.89213093,47.1151137 3,46.1073772 3,45.0049107 L3,30.9950893 C3,29.8932319 3.88836319,28.8853725 4.99263021,28.7428864 L63.0073698,21.2571136 Z" opacity=".75"/>
        <path d="M63.019188,0.243792251 C64.1131602,0.109149509 65.8941241,0.110046044 66.980812,0.243792251 L128.019188,7.75620775 C129.11316,7.89085049 130,8.8926228 130,9.99508929 L130,24.0049107 C130,25.1067681 129.105876,26.110046 128.019188,26.2437923 L66.980812,33.7562077 C65.8868398,33.8908505 64.1058759,33.889954 63.019188,33.7562077 L1.98081204,26.2437923 C0.886839757,26.1091495 0,25.1073772 0,24.0049107 L0,9.99508929 C0,8.8932319 0.894124107,7.88995396 1.98081204,7.75620775 L63.019188,0.243792251 Z"/>
      </g>
    </g>
  </g>
</svg>
